<svg id="background" xmlns="http://www.w3.org/2000/svg" width="47" height="47" viewBox="0 0 47 47">
  <g id="Group_846" data-name="Group 846">
    <path id="Path_2973" data-name="Path 2973" d="M10.559,13.594a3.035,3.035,0,0,1,3.035-3.035h24.05V4.035A3.035,3.035,0,0,0,34.609,1H4.035A3.035,3.035,0,0,0,1,4.035V34.609a3.035,3.035,0,0,0,3.035,3.035h6.524Z" transform="translate(-0.203 -0.203)" fill="#d6d6d6"/>
    <path id="Path_2974" data-name="Path 2974" d="M11.153,38.237H3.832A3.836,3.836,0,0,1,0,34.406V3.832A3.836,3.836,0,0,1,3.832,0H34.406a3.836,3.836,0,0,1,3.832,3.832v7.321H13.391a2.241,2.241,0,0,0-2.238,2.238ZM3.832,1.593A2.241,2.241,0,0,0,1.593,3.832V34.406a2.241,2.241,0,0,0,2.238,2.238H9.559V13.391a3.836,3.836,0,0,1,3.832-3.832H36.644V3.832a2.241,2.241,0,0,0-2.238-2.238Z" fill="#d6d6d6"/>
  </g>
  <path id="Path_2975" data-name="Path 2975" d="M46.609,49.644H16.035A3.035,3.035,0,0,1,13,46.609V16.035A3.035,3.035,0,0,1,16.035,13H46.609a3.035,3.035,0,0,1,3.035,3.035V46.609A3.035,3.035,0,0,1,46.609,49.644Z" transform="translate(-2.644 -2.644)" fill="#fff"/>
</svg>
