<svg xmlns="http://www.w3.org/2000/svg" width="48" height="67.943" viewBox="0 0 48 67.943">
  <g id="button" transform="translate(-0.09)">
    <path id="Path_2971" data-name="Path 2971" d="M44.651,72.369h-.1a3.579,3.579,0,0,0-3.483,3.673v2.863a1.034,1.034,0,0,1-2.067,0V73.618a3.412,3.412,0,1,0-6.792,0v5.6a1.034,1.034,0,1,1-2.067,0V72.079a3.575,3.575,0,0,0-3.45-3.7h-.1A3.458,3.458,0,0,0,23.2,71.923v8.043a1.034,1.034,0,0,1-2.067,0v-7.81c0-.025,0-.052,0-.078,0-.063,0-.127,0-.19V53.629a3.618,3.618,0,0,0-3.449-3.746,3.619,3.619,0,0,0-3.451,3.744l-.021,30.28a1.034,1.034,0,0,1-1.832.656l-3.616-4.4a5.5,5.5,0,0,0-3.885-2.054A5.386,5.386,0,0,0,.837,79.559c-.013.012-.026.025-.04.037l-.708.592,12.535,24.09a11.12,11.12,0,0,0,9.764,6.183H36.88c6.166,0,11.188-5.425,11.194-12.071,0-3.519.007-6.159.01-8.285.007-5.684.01-7.775,0-14.037A3.569,3.569,0,0,0,44.651,72.369Zm0,0" transform="translate(0 -42.518)" fill="#fff"/>
    <path id="Path_2972" data-name="Path 2972" d="M49.627,11.472a1.033,1.033,0,0,0,1.034-1.034,8.333,8.333,0,1,1,16.665,0,1.034,1.034,0,0,0,2.067,0,10.4,10.4,0,1,0-20.8,0A1.034,1.034,0,0,0,49.627,11.472Zm0,0" transform="translate(-41.342)" fill="#fff"/>
  </g>
</svg>
