<svg id="Group_868" data-name="Group 868" xmlns="http://www.w3.org/2000/svg" width="37.133" height="40" viewBox="0 0 37.133 40">
  <path id="Path_2991" data-name="Path 2991" d="M36.477,31.835H31.966a2.7,2.7,0,0,1-2.7-2.7V5.4a2.7,2.7,0,0,1,2.7-2.7H48.55a2.7,2.7,0,0,1,2.7,2.7v8.3a1.349,1.349,0,0,0,2.7,0V5.4A5.4,5.4,0,0,0,48.55,0H31.966a5.4,5.4,0,0,0-5.4,5.4V29.137a5.4,5.4,0,0,0,5.4,5.4h4.511a1.349,1.349,0,1,0,0-2.7Z" transform="translate(-26.57)" fill="#fff"/>
  <g id="Rectangle_690" data-name="Rectangle 690" transform="translate(12.133 18)" fill="none" stroke="#fff" stroke-width="2">
    <rect width="25" height="22" rx="3" stroke="none"/>
    <rect x="1" y="1" width="23" height="20" rx="2" fill="none"/>
  </g>
</svg>
