<svg id="garbage" xmlns="http://www.w3.org/2000/svg" width="33.817" height="38.477" viewBox="0 0 33.817 38.477">
  <g id="Group_865" data-name="Group 865" transform="translate(2.53 13.677)">
    <g id="Group_864" data-name="Group 864">
      <path id="Path_2987" data-name="Path 2987" d="M64.666,182l1.8,21.724a3.365,3.365,0,0,0,3.367,3.076H88.259a3.368,3.368,0,0,0,3.369-3.086L93.424,182Zm8.742,16.909a1.127,1.127,0,1,1-2.254,0V185.382a1.127,1.127,0,1,1,2.254,0Zm6.763,0a1.127,1.127,0,1,1-2.254,0V185.382a1.127,1.127,0,1,1,2.254,0Zm6.763,0a1.127,1.127,0,1,1-2.254,0V185.382a1.127,1.127,0,1,1,2.254,0Z" transform="translate(-64.666 -182)" fill="#fff"/>
    </g>
  </g>
  <g id="Group_867" data-name="Group 867" transform="translate(0)">
    <g id="Group_866" data-name="Group 866">
      <path id="Path_2988" data-name="Path 2988" d="M61.436,4.509H53.545V3.382A3.385,3.385,0,0,0,50.163,0H45.654a3.385,3.385,0,0,0-3.382,3.382V4.509H34.382A3.385,3.385,0,0,0,31,7.891v2.254a1.127,1.127,0,0,0,1.127,1.127H63.69a1.127,1.127,0,0,0,1.127-1.127V7.891A3.385,3.385,0,0,0,61.436,4.509Zm-10.145,0H44.527V3.382a1.128,1.128,0,0,1,1.127-1.127h4.509A1.128,1.128,0,0,1,51.29,3.382Z" transform="translate(-31)" fill="#fff"/>
    </g>
  </g>
</svg>
