<svg xmlns="http://www.w3.org/2000/svg" width="47.999" height="44.995" viewBox="0 0 47.999 44.995">
  <g id="Layer_x0020_1" transform="translate(-408.27 -108.53)">
    <path id="Path_2970" data-name="Path 2970" d="M450.843,108.53H413.7a5.434,5.434,0,0,0-5.429,5.431V148.1a5.431,5.431,0,0,0,5.429,5.426h37.145a5.429,5.429,0,0,0,5.426-5.426V113.961A5.432,5.432,0,0,0,450.843,108.53Zm-11.534,8.078a5.243,5.243,0,1,1-5.244,5.244A5.244,5.244,0,0,1,439.309,116.608Zm9.832,31.9H416.15a1.483,1.483,0,0,1-1.441-2.341l9-17.824a1.515,1.515,0,0,1,2.775-.258l9.049,11.826a2.218,2.218,0,0,0,3.437.217l2.213-2.241a2.108,2.108,0,0,1,3.347.283l5.732,8.188C451.089,147.544,450.589,148.507,449.141,148.507Z" transform="translate(0 0)" fill="#fff" fill-rule="evenodd"/>
  </g>
</svg>
