<svg xmlns="http://www.w3.org/2000/svg" width="29" height="37" viewBox="0 0 29 37">
  <g id="Group_863" data-name="Group 863" transform="translate(-0.41 0.349)">
    <path id="android-more-horizontal" d="M98.408,216a2.408,2.408,0,1,0,2.408,2.408A2.415,2.415,0,0,0,98.408,216Zm14.45,0a2.408,2.408,0,1,0,2.408,2.408A2.415,2.415,0,0,0,112.858,216Zm-7.225,0a2.408,2.408,0,1,0,2.408,2.408A2.415,2.415,0,0,0,105.633,216Z" transform="translate(-90.62 -209.734)" fill="#fff"/>
    <g id="Rectangle_689" data-name="Rectangle 689" transform="translate(0.41 -0.349)" fill="none" stroke="#fff" stroke-width="2">
      <rect width="29" height="37" rx="6" stroke="none"/>
      <rect x="1" y="1" width="27" height="35" rx="5" fill="none"/>
    </g>
  </g>
</svg>
