<svg xmlns="http://www.w3.org/2000/svg" width="47" height="40.356" viewBox="0 0 47 40.356">
  <g id="_105553576513472" transform="translate(-199.93 -361.57)">
    <g id="Group_381" data-name="Group 381" transform="translate(199.93 361.57)">
      <g id="Group_380" data-name="Group 380">
        <path id="Path_1556" data-name="Path 1556" d="M233.512,364.345V361.6c-.227-.023-.476-.03-.741-.03l-1.1.03-.181.2a2.052,2.052,0,0,1-.552.423,1.262,1.262,0,0,1-.733.181l-.892-.053h-7.7l-5.647-.023-3.017.023-.5.083h-3.417a52.1,52.1,0,0,1-5.542-.136l-1.421-.7-2.132.023v10.063a5.243,5.243,0,0,0,1.474,1.157c.121,0,.3-.113.537-.34a1.916,1.916,0,0,0,.514-.839c.2-.582.4-1.315.628-2.208s.423-1.55.582-1.973a1.767,1.767,0,0,1,.575-.862,6.867,6.867,0,0,1,1.92-.65,11.718,11.718,0,0,1,2.623-.355,30.349,30.349,0,0,1,3.893.159.543.543,0,0,1,.522.552,11.5,11.5,0,0,1,.053,1.5c0,.809,0,1.709-.008,2.7s-.008,2.026.008,3.107l.136,11.25q.045,6.328-.159,11.371a4.884,4.884,0,0,1-.318,1.474,28.478,28.478,0,0,1-4.173,1.315,3.424,3.424,0,0,0-2.079,1.285v.234l.03.688q0,.1.045.68c.386,0,1.006-.038,1.845-.106,2.54-.242,4.574-.37,6.116-.37,2.911,0,5,.076,6.252.212a39.3,39.3,0,0,0,4.914.265c.355,0,.65-.008.892-.03a5.335,5.335,0,0,0,.083-.756c0-.091-.045-.529-.129-1.315a7.64,7.64,0,0,0-1.315-.476c-.265-.068-.643-.174-1.134-.31s-.869-.257-1.149-.348a4.466,4.466,0,0,0-.476-.129,8.292,8.292,0,0,1-2.336-.839,7.1,7.1,0,0,1-.295-2.238l.03-3.863-.076-9.428V373.47l-.03-3.992a27.037,27.037,0,0,1,.212-3.576,12.312,12.312,0,0,1,1.762-.129c.748,0,1.724-.008,2.911-.023s2.1-.03,2.722-.03a6.079,6.079,0,0,1,1.119.053,1.5,1.5,0,0,1,.711.5,3.468,3.468,0,0,1,.151.764c.076.469.174,1.043.31,1.724a14.143,14.143,0,0,0,.4,1.641,20.219,20.219,0,0,0,1.421,3.364,7.092,7.092,0,0,0,1.784-.476,6.361,6.361,0,0,0,.106-1.338l.03-1.527-.03-2.623c-.015-2.306-.023-3.455-.023-3.455Z" transform="translate(-199.93 -361.57)" fill="#fff"/>
        <path id="Path_1557" data-name="Path 1557" d="M257.718,395.239h-2.1v-26.9h2.1c.582,0,.945-.166,1.1-.491s.06-.711-.287-1.164l-3.311-4.256a1.579,1.579,0,0,0-1.285-.688,1.6,1.6,0,0,0-1.293.688l-3.3,4.256a1.114,1.114,0,0,0-.295,1.164c.159.325.529.491,1.1.491h2.1v26.9h-2.1c-.575,0-.945.166-1.1.491s-.06.711.295,1.164l3.3,4.256a1.594,1.594,0,0,0,1.293.68,1.571,1.571,0,0,0,1.285-.68l3.311-4.256c.348-.454.446-.847.287-1.164S258.3,395.239,257.718,395.239Z" transform="translate(-211.895 -361.611)" fill="#fff"/>
      </g>
    </g>
  </g>
</svg>
