<svg xmlns="http://www.w3.org/2000/svg" width="48" height="32" viewBox="0 0 48 32">
  <g id="Group_875" data-name="Group 875" transform="translate(-63 -657)">
    <path id="video" d="M28.017,64H3.983A3.983,3.983,0,0,0,0,67.983V92.017A3.983,3.983,0,0,0,3.983,96H28.017A3.983,3.983,0,0,0,32,92.017V67.983A3.983,3.983,0,0,0,28.017,64ZM43.8,67.142l-9.133,6.3V86.558L43.8,92.85A2.672,2.672,0,0,0,48,90.7V69.292A2.673,2.673,0,0,0,43.8,67.142Z" transform="translate(63 593)" fill="#fff"/>
    <path id="music" d="M22.458,1.4A1.4,1.4,0,0,0,20.633.057L6.6,4.2A1.4,1.4,0,0,0,5.615,5.54V17.007a6.068,6.068,0,0,0-1.4-.172C1.885,16.835,0,18.092,0,19.643S1.885,22.45,4.211,22.45s4.211-1.257,4.211-2.807V9.392L19.651,6.1v8.1a6.068,6.068,0,0,0-1.4-.172c-2.326,0-4.211,1.257-4.211,2.807s1.885,2.807,4.211,2.807,4.211-1.257,4.211-2.807V1.4Z" transform="translate(68 660.559)" fill="#191919"/>
  </g>
</svg>
