<svg xmlns="http://www.w3.org/2000/svg" width="460" height="272.936" viewBox="0 0 460 272.936">
  <g id="Group_843" data-name="Group 843" transform="translate(-730 -501.064)">
    <g id="Group_761" data-name="Group 761" transform="translate(-47 -105)">
      <g id="upload" transform="translate(920 605.064)">
        <path id="Path_2863" data-name="Path 2863" d="M55.341,97.772H37.251a9.058,9.058,0,0,1-9.045-9.045V57.974H11.925a5.43,5.43,0,0,1-3.936-9.168L42.36,12.627a5.6,5.6,0,0,1,7.873,0L84.6,48.806a5.426,5.426,0,0,1-3.936,9.168H64.386V88.727a9.058,9.058,0,0,1-9.045,9.045Z" transform="translate(40.535 62.419)" fill="#212325"/>
        <path id="Path_2864" data-name="Path 2864" d="M135.117,29.416A55.157,55.157,0,0,0,86.831,1C61.18,1,38.929,18.837,33.307,43.178A37.091,37.091,0,0,0,0,79.872c0,18.777,14.3,34.154,32.649,36.44a19.849,19.849,0,0,1,5.376-15.036L72.4,65.089c7.4-7.786,21.462-7.786,28.85,0l34.378,36.18a19.851,19.851,0,0,1,5.427,13.9,43.754,43.754,0,0,0-5.941-85.753Z" transform="translate(0 0)" fill="#212325"/>
      </g>
      <text id="You_have_not_added_any_file_yet_Click_to_add_" data-name="You have not added any file yet
Click to add +" transform="translate(1007 833)" fill="#fff" font-size="32" font-family="Rubik-Regular, Rubik" opacity="0.347"><tspan x="-229.984" y="0">You have not added any file yet</tspan><tspan x="-100.032" y="38">Click to add +</tspan></text>
    </g>
  </g>
</svg>
