<svg id="_105553641732576" xmlns="http://www.w3.org/2000/svg" width="37.529" height="28.147" viewBox="0 0 37.529 28.147">
  <path id="Path_36" data-name="Path 36" d="M1190.592,406.29H1160.1a3.517,3.517,0,0,0-3.517,3.517v21.1a3.525,3.525,0,0,0,3.517,3.526h30.495a3.531,3.531,0,0,0,3.517-3.526v-21.1A3.523,3.523,0,0,0,1190.592,406.29Zm0,2.339a1.186,1.186,0,0,1,.442.092l-15.689,13.609-15.7-13.609a1.234,1.234,0,0,1,.451-.092h30.495Zm0,23.46H1160.1a1.175,1.175,0,0,1-1.179-1.179V411.2l15.653,13.572a1.178,1.178,0,0,0,1.538,0l15.652-13.572v19.713a1.173,1.173,0,0,1-1.169,1.179Z" transform="translate(-1156.58 -406.29)" fill="#b3b3b3"/>
</svg>
