<svg xmlns="http://www.w3.org/2000/svg" width="55.782" height="51.74" viewBox="0 0 55.782 51.74">
  <g id="Group_843" data-name="Group 843" transform="translate(-401 -1065.344)">
    <rect id="Rectangle_666" data-name="Rectangle 666" width="55.782" height="51.74" rx="16" transform="translate(401 1065.344)" fill="#5f5f5f" opacity="0.29"/>
    <g id="_2702602" data-name="2702602" transform="translate(414.209 1076.857)">
      <path id="Path_2914" data-name="Path 2914" d="M6.8,109.048a7.664,7.664,0,0,1,1.085-3.939v-4.893H2.995a14.522,14.522,0,0,0,0,17.665H7.888v-4.893A7.664,7.664,0,0,1,6.8,109.048Z" transform="translate(0 -94.533)" fill="#fbbd00"/>
      <path id="Path_2915" data-name="Path 2915" d="M199.4,374.04l-3.4,3.4,3.4,3.4a14.4,14.4,0,0,0,8.833-2.995v-4.888h-4.888A7.71,7.71,0,0,1,199.4,374.04Z" transform="translate(-184.887 -351.815)" fill="#0f9d58"/>
      <path id="Path_2916" data-name="Path 2916" d="M57.716,325.477l-4.893,4.893a14.744,14.744,0,0,0,1.256,1.431,14.42,14.42,0,0,0,10.263,4.251v-6.8A7.714,7.714,0,0,1,57.716,325.477Z" transform="translate(-49.828 -307.023)" fill="#31aa52"/>
      <path id="Path_2917" data-name="Path 2917" d="M270.515,200.651a14.643,14.643,0,0,0-.238-2.629l-.128-.7H256v6.8h6.886a7.676,7.676,0,0,1-2.942,3.155l4.888,4.888a14.747,14.747,0,0,0,1.431-1.256A14.42,14.42,0,0,0,270.515,200.651Z" transform="translate(-241.485 -186.136)" fill="#3c79e6"/>
      <path id="Path_2918" data-name="Path 2918" d="M204.854,9.062l.6.6,4.811-4.811-.6-.6A14.42,14.42,0,0,0,199.4,0L196,3.4l3.4,3.4A7.661,7.661,0,0,1,204.854,9.062Z" transform="translate(-184.887 0)" fill="#cf2d48"/>
      <path id="Path_2919" data-name="Path 2919" d="M64.342,6.8V0A14.42,14.42,0,0,0,54.078,4.251a14.733,14.733,0,0,0-1.256,1.431l4.893,4.893A7.714,7.714,0,0,1,64.342,6.8Z" transform="translate(-49.827 0)" fill="#eb4132"/>
    </g>
  </g>
</svg>
