<svg id="_105553641751104" xmlns="http://www.w3.org/2000/svg" width="28.865" height="38.496" viewBox="0 0 28.865 38.496">
  <g id="Group_18" data-name="Group 18" transform="translate(0 0)">
    <g id="Group_17" data-name="Group 17">
      <g id="Group_16" data-name="Group 16">
        <path id="Path_38" data-name="Path 38" d="M1175.347,534.4l-.506,4.548a.793.793,0,0,0,.792.893h3.213a.793.793,0,0,0,.792-.893l-.506-4.548a3.151,3.151,0,0,0,1.317-2.578,3.209,3.209,0,0,0-6.417,0A3.15,3.15,0,0,0,1175.347,534.4Zm1.9-4.18a1.6,1.6,0,0,1,1.6,1.6,1.582,1.582,0,0,1-.911,1.436.8.8,0,0,0-.451.81l.46,4.171h-1.409l.46-4.171a.8.8,0,0,0-.451-.81,1.582,1.582,0,0,1-.912-1.436A1.611,1.611,0,0,1,1177.243,530.222Z" transform="translate(-1162.806 -507.765)" fill="#b3b3b3"/>
        <path id="Path_39" data-name="Path 39" d="M1189.9,520.407h-2.4v-3.2a11.228,11.228,0,1,0-22.457,0v3.2h-2.4a.8.8,0,0,0-.8.8v20.044a3.209,3.209,0,0,0,3.2,3.213H1187.5a3.208,3.208,0,0,0,3.2-3.213V521.208a.8.8,0,0,0-.8-.8Zm-23.258-3.2a9.626,9.626,0,1,1,19.253,0v3.2h-1.611v-3.2a8.015,8.015,0,1,0-16.03,0v3.2h-1.611Zm16.039,0v3.2H1169.86v-3.2a6.413,6.413,0,1,1,12.826,0Zm6.417,24.05a1.611,1.611,0,0,1-1.6,1.611h-22.457a1.611,1.611,0,0,1-1.6-1.611V522.009H1189.1Z" transform="translate(-1161.84 -505.97)" fill="#b3b3b3"/>
      </g>
    </g>
  </g>
</svg>
