<svg xmlns="http://www.w3.org/2000/svg" width="55.782" height="51.74" viewBox="0 0 55.782 51.74">
  <g id="Group_845" data-name="Group 845" transform="translate(-566.729 -1065.344)">
    <rect id="Rectangle_668" data-name="Rectangle 668" width="55.782" height="51.74" rx="16" transform="translate(566.729 1065.344)" fill="#5f5f5f" opacity="0.29"/>
    <path id="twitter" d="M35.728,51.437a15.271,15.271,0,0,1-4.22,1.157,7.284,7.284,0,0,0,3.222-4.048,14.638,14.638,0,0,1-4.645,1.773,7.324,7.324,0,0,0-12.67,5.009,7.542,7.542,0,0,0,.17,1.67,20.732,20.732,0,0,1-15.1-7.661,7.327,7.327,0,0,0,2.251,9.79,7.233,7.233,0,0,1-3.309-.9v.08A7.358,7.358,0,0,0,7.3,65.5a7.311,7.311,0,0,1-1.92.241,6.477,6.477,0,0,1-1.387-.125,7.394,7.394,0,0,0,6.844,5.1,14.718,14.718,0,0,1-9.082,3.124A13.719,13.719,0,0,1,0,73.742a20.621,20.621,0,0,0,11.237,3.287c13.479,0,20.847-11.165,20.847-20.843,0-.324-.011-.636-.027-.947A14.612,14.612,0,0,0,35.728,51.437Z" transform="translate(576.917 1028.857)" fill="#03a9f4"/>
  </g>
</svg>
