<svg xmlns="http://www.w3.org/2000/svg" width="31.513" height="34.779" viewBox="0 0 31.513 34.779">
  <path id="Union_55" data-name="Union 55" d="M0,23.445A10.114,10.114,0,0,1,.571,22.5c.319-.476.716-1.008,1.18-1.581A7.747,7.747,0,0,1,3.47,19.37a10.352,10.352,0,0,1,1.8-.954,11.658,11.658,0,0,1,1.418-.482c.354-.095.573-.133.575-.134a4.148,4.148,0,0,1,1.095-.168,2.273,2.273,0,0,1,.422.037,8.486,8.486,0,0,0,1.236.911,8.7,8.7,0,0,0,1.405.686,8.879,8.879,0,0,0,1.544.433,9.11,9.11,0,0,0,1.652.151A8.776,8.776,0,0,0,20.4,17.716a1.571,1.571,0,0,1,.3-.1h.065a5.93,5.93,0,0,1,.992.1,10.443,10.443,0,0,1,2,.576c.485.252.942.509,1.359.764.4.245.777.5,1.118.747s.631.486.906.732a9.4,9.4,0,0,1,.723.72,7.679,7.679,0,0,1,1.01,1.412,8.687,8.687,0,0,1,.47,1c-2.1,5.3-7.855,9.114-14.63,9.114C7.846,32.779,2.023,28.864,0,23.445ZM5.806,8.809a8.876,8.876,0,1,1,8.876,8.809A8.843,8.843,0,0,1,5.806,8.809Z" transform="translate(1.092 1)" fill="none" stroke="#a2a2a2" stroke-width="2"/>
</svg>
