<svg xmlns="http://www.w3.org/2000/svg" width="16.932" height="12.872" viewBox="0 0 16.932 12.872">
  <g id="Group_787" data-name="Group 787" transform="translate(-1031.307 -56)">
    <g id="Group_786" data-name="Group 786">
      <path id="Union_3" data-name="Union 3" d="M2.229,12.872A2.3,2.3,0,0,1,0,10.506V5.621A2.3,2.3,0,0,1,2.229,3.254H6.551a1.043,1.043,0,0,0,.829-.516L8.392.961,8.644.516A1.044,1.044,0,0,1,9.476,0H14.7a2.3,2.3,0,0,1,2.232,2.367v8.139A2.3,2.3,0,0,1,14.7,12.872ZM0,3.328A2.3,2.3,0,0,1,2.229.961H7.9l-.88,1.55a.642.642,0,0,1-.473.3H2.229A2.612,2.612,0,0,0,0,4.111Z" transform="translate(1031.307 56)" fill="#519ef4"/>
    </g>
  </g>
</svg>
