<svg xmlns="http://www.w3.org/2000/svg" width="15.885" height="15.885" viewBox="0 0 15.885 15.885">
  <g id="Group_783" data-name="Group 783" transform="translate(-376 -54)">
    <path id="Path_155" data-name="Path 155" d="M313.942,28A7.942,7.942,0,1,1,306,35.942,7.942,7.942,0,0,1,313.942,28Zm-4.285,8.038h0a.888.888,0,0,1,.867-.906l2.512-.056-.056-2.513a.888.888,0,0,1,.866-.905h0a.888.888,0,0,1,.9.866l.058,2.513,2.512-.056a.888.888,0,0,1,.9.867h0a.887.887,0,0,1-.866.906l-2.512.057.056,2.512a.888.888,0,0,1-.866.906h0a.89.89,0,0,1-.906-.867l-.056-2.513-2.512.056A.889.889,0,0,1,309.657,36.038Z" transform="translate(70 26)" fill="#519ef4" fill-rule="evenodd"/>
  </g>
</svg>
