<svg id="notification" xmlns="http://www.w3.org/2000/svg" width="23.49" height="28.189" viewBox="0 0 23.49 28.189">
  <g id="Group_4" data-name="Group 4" transform="translate(0)">
    <g id="Group_3" data-name="Group 3" transform="translate(0)">
      <path id="Path_10" data-name="Path 10" d="M66.082,23.777l-2.017-3.362a9.985,9.985,0,0,1-1.424-5.138V12.333a8.232,8.232,0,0,0-5.873-7.875V2.349a2.349,2.349,0,0,0-4.7,0V4.457A8.232,8.232,0,0,0,46.2,12.333v2.945a9.991,9.991,0,0,1-1.422,5.136l-2.017,3.362a.588.588,0,0,0,.5.89H65.578a.587.587,0,0,0,.5-.889Z" transform="translate(-42.675)" fill="#fff"/>
    </g>
  </g>
  <g id="Group_6" data-name="Group 6" transform="translate(8.046 25.84)">
    <g id="Group_5" data-name="Group 5">
      <path id="Path_11" data-name="Path 11" d="M188.815,469.333a4.086,4.086,0,0,0,7.4,0Z" transform="translate(-188.815 -469.333)" fill="#fff"/>
    </g>
  </g>
</svg>
