<svg xmlns="http://www.w3.org/2000/svg" width="76.415" height="71.629" viewBox="0 0 76.415 71.629">
  <g id="Group_782" data-name="Group 782" transform="translate(-115.076 -152.654)">
    <path id="Path_163" data-name="Path 163" d="M1096.528,306.22h-59.136a8.651,8.651,0,0,0-8.642,8.647v54.345a8.645,8.645,0,0,0,8.642,8.637h59.136a8.641,8.641,0,0,0,8.637-8.637V314.867A8.646,8.646,0,0,0,1096.528,306.22Zm-18.364,12.861a8.346,8.346,0,1,1-8.346,8.346A8.344,8.344,0,0,1,1078.164,319.081Zm15.651,50.78H1041.3c-2.306,0-3.333-1.666-2.3-3.725l14.329-28.376c1.036-2.059,3.018-2.243,4.417-.412l14.406,18.829a3.529,3.529,0,0,0,5.469.344l3.521-3.565a3.354,3.354,0,0,1,5.328.45l9.126,13.035C1096.915,368.33,1096.121,369.861,1093.815,369.861Z" transform="translate(-913.674 -153.565)" fill-rule="evenodd"/>
  </g>
</svg>
