<svg xmlns="http://www.w3.org/2000/svg" width="17.073" height="17.073" viewBox="0 0 17.073 17.073">
  <g id="Group_788" data-name="Group 788" transform="translate(-1165.956 -53)">
    <path id="Path_158" data-name="Path 158" d="M567.672,34.592l-1.312-.285a7.2,7.2,0,0,0-.422-1.018l.726-1.13a.509.509,0,0,0-.068-.636l-2.044-2.044a.509.509,0,0,0-.636-.068l-1.131.726a7.178,7.178,0,0,0-1.018-.422L561.48,28.4a.51.51,0,0,0-.5-.4h-2.89a.51.51,0,0,0-.5.4l-.285,1.312a7.132,7.132,0,0,0-1.019.422l-1.129-.726a.511.511,0,0,0-.637.068l-2.044,2.044a.51.51,0,0,0-.068.636l.726,1.13a7.189,7.189,0,0,0-.421,1.018l-1.312.285a.51.51,0,0,0-.4.5v2.891a.51.51,0,0,0,.4.5l1.312.285a7.189,7.189,0,0,0,.421,1.018l-.726,1.13a.51.51,0,0,0,.068.636l2.044,2.044a.511.511,0,0,0,.637.068l1.129-.726a7.131,7.131,0,0,0,1.019.422l.285,1.312a.51.51,0,0,0,.5.4h2.89a.51.51,0,0,0,.5-.4l.286-1.312a7.177,7.177,0,0,0,1.018-.422l1.131.726a.509.509,0,0,0,.636-.068l2.044-2.044a.509.509,0,0,0,.068-.636l-.726-1.13a7.2,7.2,0,0,0,.422-1.018l1.312-.285a.51.51,0,0,0,.4-.5V35.091A.51.51,0,0,0,567.672,34.592ZM562.6,36.536a3.061,3.061,0,1,1-3.062-3.061A3.065,3.065,0,0,1,562.6,36.536Z" transform="translate(614.956 25)" fill="#519ef4"/>
  </g>
</svg>
