<svg xmlns="http://www.w3.org/2000/svg" width="25.088" height="16.128" viewBox="0 0 25.088 16.128">
  <g id="Group_786" data-name="Group 786" transform="translate(-881.823 -54)">
    <path id="android-people" d="M49.105,118.72a3.36,3.36,0,1,0-3.421-3.36A3.4,3.4,0,0,0,49.105,118.72Zm-9.123,0a3.36,3.36,0,1,0-3.421-3.36A3.4,3.4,0,0,0,39.982,118.72Zm0,2.464c-2.68,0-7.982,1.288-7.982,3.92v3.024H48.128V125.1C48.128,122.472,42.662,121.184,39.982,121.184Zm9.123.616a6.086,6.086,0,0,0-.977.056A3.339,3.339,0,0,1,49.92,125.1v3.024h7.168V125.1C57.088,122.472,51.785,121.8,49.105,121.8Z" transform="translate(849.823 -58)" fill="#519ef4"/>
  </g>
</svg>
