<svg xmlns="http://www.w3.org/2000/svg" width="35" height="35" viewBox="0 0 35 35">
  <g id="Group_784" data-name="Group 784" transform="translate(-1732 -43)">
    <circle id="Ellipse_9" data-name="Ellipse 9" cx="17.5" cy="17.5" r="17.5" transform="translate(1732 43)" fill="#dfecfd" opacity="0.146"/>
    <g id="Group_207" data-name="Group 207" transform="translate(1736.915 48)">
      <path id="Shape" d="M15.849,21.7A5.849,5.849,0,1,0,10,15.849,5.849,5.849,0,0,0,15.849,21.7Zm0-10.4a.65.65,0,1,1,0,1.3A3.253,3.253,0,0,0,12.6,15.849a.65.65,0,1,1-1.3,0A4.554,4.554,0,0,1,15.849,11.3Z" transform="translate(-3.501 -3.501)" fill="#fff"/>
      <path id="Shape-2" data-name="Shape" d="M18.65,3.9a.65.65,0,0,0,.65-.65V.65a.65.65,0,1,0-1.3,0v2.6A.65.65,0,0,0,18.65,3.9Z" transform="translate(-6.302)" fill="#fff"/>
      <path id="Shape-3" data-name="Shape" d="M18,32.65v2.6a.65.65,0,0,0,1.3,0v-2.6a.65.65,0,0,0-1.3,0Z" transform="translate(-6.302 -11.204)" fill="#fff"/>
      <path id="Shape-4" data-name="Shape" d="M32,18.65a.65.65,0,0,0,.65.65h2.6a.65.65,0,0,0,0-1.3h-2.6A.65.65,0,0,0,32,18.65Z" transform="translate(-11.203 -6.302)" fill="#fff"/>
      <path id="Shape-5" data-name="Shape" d="M3.9,18.65a.65.65,0,0,0-.65-.65H.65a.65.65,0,1,0,0,1.3h2.6A.65.65,0,0,0,3.9,18.65Z" transform="translate(0 -6.302)" fill="#fff"/>
      <path id="Shape-6" data-name="Shape" d="M7.305,8.224a.65.65,0,0,0,.919-.919L6.386,5.467a.65.65,0,0,0-.919.919Z" transform="translate(-1.85 -1.85)" fill="#fff"/>
      <path id="Shape-7" data-name="Shape" d="M28.089,28.089a.65.65,0,0,0,0,.919l1.839,1.839a.65.65,0,0,0,.919-.919l-1.839-1.839a.65.65,0,0,0-.919,0Z" transform="translate(-9.768 -9.768)" fill="#fff"/>
      <path id="Shape-8" data-name="Shape" d="M28.55,8.405a.65.65,0,0,0,.459-.19l1.839-1.839a.65.65,0,1,0-.919-.919L28.09,7.3a.65.65,0,0,0,.46,1.109Z" transform="translate(-9.768 -1.841)" fill="#fff"/>
      <path id="Shape-9" data-name="Shape" d="M6.377,30.851l1.839-1.839a.65.65,0,0,0-.919-.919L5.458,29.932a.65.65,0,1,0,.919.919Z" transform="translate(-1.841 -9.772)" fill="#fff"/>
    </g>
  </g>
</svg>
