<svg xmlns="http://www.w3.org/2000/svg" width="17.081" height="16.341" viewBox="0 0 17.081 16.341">
  <g id="Group_784" data-name="Group 784" transform="translate(-544.468 -54)">
    <path id="favourite" d="M17.035,6.172a1.208,1.208,0,0,0-1.057-.75l-4.421-.642L9.581.773A1.208,1.208,0,0,0,8.54,0,1.208,1.208,0,0,0,7.5.774L5.523,4.779,1.1,5.422a1.208,1.208,0,0,0-1.057.75A1.208,1.208,0,0,0,.459,7.4l3.2,3.118-.755,4.4a1.272,1.272,0,0,0,.223,1.084.957.957,0,0,0,.747.335,1.542,1.542,0,0,0,.713-.2L8.54,14.066l3.954,2.079a1.541,1.541,0,0,0,.713.2h0a.957.957,0,0,0,.747-.335,1.272,1.272,0,0,0,.223-1.084l-.755-4.4,3.2-3.118A1.208,1.208,0,0,0,17.035,6.172Zm0,0" transform="translate(544.468 54)" fill="#519ef4"/>
  </g>
</svg>
