<svg xmlns="http://www.w3.org/2000/svg" width="16.618" height="15.233" viewBox="0 0 16.618 15.233">
  <g id="Group_785" data-name="Group 785" transform="translate(-714.307 -54)">
    <g id="upload" transform="translate(714.307 53)">
      <path id="Path_164" data-name="Path 164" d="M11.174,19.312H9.443a.867.867,0,0,1-.866-.866V15.5H7.019a.52.52,0,0,1-.377-.877l3.289-3.462a.536.536,0,0,1,.753,0l3.289,3.462a.519.519,0,0,1-.377.877H12.039v2.943a.867.867,0,0,1-.866.866Z" transform="translate(-1.999 -3.079)" fill="#519ef4"/>
      <path id="Path_165" data-name="Path 165" d="M12.929,3.719A5.275,5.275,0,0,0,3.187,5.036a3.518,3.518,0,0,0-.063,7A1.9,1.9,0,0,1,3.639,10.6l3.29-3.463a1.984,1.984,0,0,1,2.761,0l3.29,3.462a1.9,1.9,0,0,1,.519,1.33,4.187,4.187,0,0,0-.568-8.206Z" fill="#519ef4"/>
    </g>
  </g>
</svg>
